<svg height="36" viewBox="0 0 36 36" width="36" xmlns="http://www.w3.org/2000/svg"><g fill="#fff" transform="translate(3 3)"><path d="m21.7209071 0h-13.44216912c-4.56489335 0-8.27873798 3.71402207-8.27873798 8.27891543v13.44216917c0 4.5650708 3.71384463 8.2789154 8.27873798 8.2789154h13.44216912c4.5652483 0 8.2790929-3.7140221 8.2790929-8.2789154v-13.44216917c.0001774-4.56489336-3.7138446-8.27891543-8.2790929-8.27891543zm5.617525 21.7210846c0 3.0973844-2.5199631 5.61717-5.6173475 5.61717h-13.44234662c-3.09720694.0001775-5.61699258-2.5197856-5.61699258-5.61717v-13.44216917c0-3.09720694 2.51978564-5.61717003 5.61699258-5.61717003h13.44216912c3.0973844 0 5.6173475 2.51996309 5.6173475 5.61717003v13.44216917z"/><path d="m14.5 7c-4.1355623 0-7.5 3.3645149-7.5 7.5001722 0 4.135485 3.3644377 7.4998278 7.5 7.4998278s7.5-3.3643428 7.5-7.4998278c0-4.1356573-3.3644377-7.5001722-7.5-7.5001722zm0 12.4173018c-2.7114179 0-4.91753323-2.2058216-4.91753323-4.9173018 0-2.7116524 2.20594313-4.91764611 4.91753323-4.91764611s4.9175332 2.20599371 4.9175332 4.91764611c0 2.7114802-2.2061153 4.9173018-4.9175332 4.9173018z"/><path d="m23 5c-.5254545 0-1.0416364.21272727-1.4127273.58545455-.3729091.37090909-.5872727.88727272-.5872727 1.41454545 0 .52563636.2145455 1.04181818.5872727 1.41454545.3709091.3709091.8872728.58545455 1.4127273.58545455.5272727 0 1.0418182-.21454545 1.4145455-.58545455.3727272-.37272727.5854545-.8890909.5854545-1.41454545 0-.52727273-.2127273-1.04363636-.5854545-1.41454545-.3709091-.37272728-.8872728-.58545455-1.4145455-.58545455z"/></g></svg>