<svg height="36" viewBox="0 0 36 36" width="36" xmlns="http://www.w3.org/2000/svg"><path d="m30 17.1667778v10.8332222h-6.4299714v-10.1076783c0-2.5391312-.930026-4.271989-3.2574625-4.271989-1.7767026 0-2.8340196 1.1678192-3.2991721 2.2974877-.1696282.403852-.2132908.9659612-.2132908 1.5312723v10.5509073h-6.4321336s.0866276-17.1190894 0-18.89275478h6.4315059v2.67797238c-.013043.0200291-.0299918.0416251-.0422676.0610411h.0422676v-.0610411c.8544884-1.2854731 2.3805151-3.1218145 5.7962368-3.1218145 4.2318486-.00006813 7.4042877 2.7002496 7.4042877 8.5033747zm-26.36031591-17.1667778c-2.20042454 0-3.63968409 1.40973523-3.63968409 3.26358509 0 1.81345103 1.39761972 3.26596951 3.55431197 3.26596951h.04296505c2.24304085 0 3.63801012-1.45224597 3.63801012-3.26596951-.04226757-1.85384986-1.39496927-3.26358509-3.59560305-3.26358509zm-3.25767175 28h6.42969238v-18.89275478h-6.42969238z" fill="#fff" transform="translate(3 4)"/></svg>