<svg height="36" viewBox="0 0 36 36" width="36" xmlns="http://www.w3.org/2000/svg"><path d="m33 3.19638462c-1.2271875.54207692-2.5348125.90138461-3.898125 1.07584615 1.4025-.84323077 2.4729375-2.16830769 2.9761875-3.76546154-1.307625.78507692-2.751375 1.33961539-4.29 1.64907692-1.241625-1.33130769-3.01125-2.15584615-4.94175-2.15584615-3.7455 0-6.760875 3.06138462-6.760875 6.81438462 0 .54.045375 1.05923076.15675 1.55353846-5.6244375-.27623077-10.60125-2.99076923-13.9445625-7.12592308-.5836875 1.01976923-.9260625 2.187-.9260625 3.44353846 0 2.35938462 1.2065625 4.45084616 3.0050625 5.66169234-1.0869375-.0207693-2.15325-.3385385-3.056625-.83907695v.07476923c0 3.31061542 2.3450625 6.06046152 5.42025 6.69392312-.5506875.1516153-1.150875.2243076-1.77375.2243076-.433125 0-.870375-.024923-1.2808125-.1163076.8765625 2.697923 3.3639375 4.6813846 6.3215625 4.7457692-2.30175 1.8131538-5.2243125 2.9056154-8.3881875 2.9056154-.5548125 0-1.0869375-.0249231-1.6190625-.0934616 2.9968125 1.946077 6.5484375 3.0572308 10.3785 3.0572308 12.44925 0 19.2555-10.3846154 19.2555-19.386 0-.30115385-.0103125-.59192308-.02475-.88061538 1.3426875-.95953847 2.470875-2.15792308 3.39075-3.537z" fill="#fff" transform="translate(1 4)"/></svg>